<?xml version="1.0" standalone="no"?>
<!DOCTYPE svg PUBLIC "-//W3C//DTD SVG 20010904//EN"
 "http://www.w3.org/TR/2001/REC-SVG-20010904/DTD/svg10.dtd">
<svg version="1.0" xmlns="http://www.w3.org/2000/svg"
 width="5000.000000pt" height="1900.000000pt" viewBox="0 0 5000.000000 1900.000000"
 preserveAspectRatio="xMidYMid meet">

<g transform="translate(0.000000,1900.000000) scale(0.100000,-0.100000)"
fill="#000000" stroke="none">
<path d="M5476 16190 c-63 -25 -112 -71 -142 -135 l-24 -50 0 -456 0 -457
-357 -5 c-266 -3 -384 -9 -458 -21 -835 -138 -1476 -659 -1655 -1349 -16 -61
-34 -152 -40 -202 -14 -123 -14 -3687 0 -3810 64 -565 471 -1085 1065 -1360
212 -99 415 -156 703 -200 l42 -7 0 -321 c0 -317 1 -323 24 -372 29 -63 68
-102 131 -131 l50 -24 2155 0 2155 0 60 28 c63 30 103 72 133 140 14 31 17 85
20 359 l4 322 31 5 c302 46 495 102 722 210 237 113 398 226 570 400 184 186
290 345 379 568 62 154 94 300 106 473 5 80 10 863 10 1815 0 952 -5 1735 -10
1815 -27 405 -205 777 -511 1070 -337 323 -816 536 -1313 584 -60 6 -239 11
-397 11 l-288 0 -3 458 c-3 414 -5 461 -21 497 -23 50 -80 110 -132 138 l-40
22 -1460 2 c-1421 2 -1461 2 -1509 -17z m2626 -725 c1 -118 2 -250 2 -292 l1
-78 -1132 -3 -1133 -2 0 295 0 295 1130 0 1130 0 2 -215z m1218 -920 c663 -89
1165 -483 1280 -1003 19 -84 20 -149 20 -1932 0 -1783 -1 -1848 -20 -1932 -60
-272 -218 -503 -475 -692 -176 -131 -394 -228 -616 -277 -234 -51 -139 -49
-2534 -49 -2330 0 -2311 0 -2505 41 -594 125 -1044 523 -1132 1004 -19 103
-19 3707 0 3810 62 338 309 648 665 836 185 97 409 168 617 194 150 20 4556
20 4700 0z m-520 -6570 l0 -155 -1830 0 -1830 0 0 155 0 155 1830 0 1830 0 0
-155z"/>
<path d="M4565 14399 c-411 -43 -725 -247 -922 -599 -45 -80 -79 -165 -112
-282 -37 -130 -51 -222 -51 -338 0 -91 0 -92 33 -125 42 -42 95 -54 151 -34
53 18 83 64 90 137 30 295 99 486 235 652 155 189 361 288 646 311 148 12 187
25 216 71 28 46 22 127 -12 164 -49 54 -99 61 -274 43z"/>
<path d="M5617 12669 c-207 -49 -354 -267 -318 -471 40 -232 255 -389 477
-351 143 25 255 110 317 241 30 62 32 75 32 172 0 97 -2 110 -32 172 -87 184
-284 282 -476 237z"/>
<path d="M8120 12665 c-121 -34 -236 -138 -282 -255 -29 -73 -31 -212 -5 -287
39 -113 147 -221 260 -260 73 -25 214 -24 283 4 160 63 260 199 272 370 12
176 -99 350 -265 413 -75 29 -189 35 -263 15z"/>
<path d="M5589 10660 c-50 -26 -73 -65 -73 -122 0 -42 8 -59 70 -150 118 -176
309 -358 504 -483 158 -102 390 -190 597 -227 148 -26 405 -31 533 -9 193 32
411 106 560 188 236 129 467 347 607 571 42 68 45 77 40 125 -4 42 -10 56 -40
83 -69 63 -156 53 -212 -23 -16 -23 -52 -75 -80 -115 -110 -159 -303 -320
-500 -418 -217 -107 -369 -143 -615 -143 -240 -1 -417 40 -626 143 -219 110
-382 250 -533 460 -99 138 -149 164 -232 120z"/>
<path d="M13645 13478 c-3 -7 -4 -710 -3 -1563 l3 -1550 1035 0 1035 0 0 140
0 140 -872 3 -873 2 -2 1418 -3 1417 -158 3 c-120 2 -159 0 -162 -10z"/>
<path d="M34325 13208 c-3 -7 -6 -121 -7 -253 l-3 -240 -205 -5 -205 -5 0
-130 0 -130 207 -3 207 -2 4 -783 c4 -752 5 -785 24 -852 38 -131 77 -200 155
-278 82 -82 156 -124 278 -158 108 -30 310 -30 435 0 95 23 210 74 260 115
l30 24 -50 102 c-27 56 -53 104 -57 106 -4 3 -45 -13 -91 -36 -158 -78 -324
-86 -462 -21 -108 51 -170 136 -194 266 -7 39 -11 309 -11 787 l0 728 355 0
355 0 0 135 0 135 -352 2 -353 3 -3 253 -2 252 -155 0 c-115 0 -157 -3 -160
-12z"/>
<path d="M16960 12720 c-107 -9 -187 -25 -271 -55 -488 -173 -778 -621 -756
-1169 6 -157 22 -250 65 -376 104 -305 305 -524 607 -663 141 -65 253 -92 445
-107 295 -24 584 43 799 184 70 47 211 171 211 187 0 14 -161 199 -173 199 -5
0 -37 -25 -70 -57 -112 -103 -252 -177 -404 -215 -114 -28 -356 -30 -477 -3
-172 36 -303 104 -423 219 -86 81 -141 157 -189 261 -36 77 -74 223 -74 280
l0 35 981 0 982 0 -6 148 c-10 263 -70 458 -203 664 -51 80 -191 221 -272 277
-220 149 -488 215 -772 191z m285 -282 c278 -42 531 -265 622 -548 17 -55 43
-202 36 -212 -2 -5 -373 -8 -824 -8 -741 0 -820 2 -826 16 -9 23 16 148 46
235 55 154 171 304 310 398 176 120 381 158 636 119z"/>
<path d="M19660 12720 c-391 -35 -746 -265 -909 -587 -101 -201 -142 -421
-121 -648 57 -609 529 -1026 1165 -1028 207 -1 362 32 530 113 146 70 247 152
362 295 l32 40 0 -150 c2 -421 -57 -632 -220 -794 -77 -76 -204 -141 -339
-172 -136 -31 -397 -38 -540 -14 -244 41 -434 114 -595 230 -44 32 -84 59 -90
62 -6 2 -46 -49 -89 -113 l-78 -116 34 -29 c187 -162 497 -280 837 -319 133
-16 434 -8 556 14 399 72 656 288 769 645 62 196 59 138 63 1404 l4 1157 -151
0 -150 0 0 -222 -1 -223 -26 35 c-48 63 -197 205 -255 243 -215 141 -492 203
-788 177z m355 -284 c168 -30 317 -101 441 -211 81 -72 135 -143 184 -248 56
-116 71 -183 77 -335 6 -153 -6 -249 -46 -364 -39 -108 -84 -180 -175 -275
-111 -117 -218 -181 -396 -235 -67 -21 -95 -23 -265 -23 -169 0 -199 3 -267
23 -160 47 -265 107 -371 210 -83 80 -133 153 -176 249 -57 130 -66 181 -66
368 0 201 10 250 86 403 114 232 327 385 609 438 91 17 270 17 365 0z"/>
<path d="M22760 12720 c-121 -11 -199 -27 -298 -62 -187 -65 -300 -136 -437
-272 -162 -161 -253 -328 -311 -571 -26 -109 -31 -380 -9 -503 19 -104 71
-264 112 -346 131 -259 383 -470 673 -564 227 -74 552 -74 780 0 357 115 625
380 736 728 75 234 84 502 24 734 -52 206 -141 364 -285 511 -144 147 -287
235 -480 296 -133 42 -347 63 -505 49z m264 -280 c206 -30 384 -126 512 -277
272 -322 286 -873 30 -1213 -178 -237 -460 -351 -791 -320 -100 10 -229 46
-310 88 -107 54 -253 191 -318 298 -90 149 -136 323 -137 514 0 363 149 646
429 809 157 92 380 130 585 101z"/>
<path d="M25800 12724 c-257 -21 -457 -101 -616 -247 -41 -38 -94 -97 -117
-131 l-42 -61 -3 213 -2 212 -150 0 -150 0 0 -1175 0 -1175 160 0 160 0 0 679
c0 742 2 774 59 929 80 221 253 381 477 443 109 30 299 37 413 15 183 -34 338
-147 418 -303 89 -173 93 -222 93 -1065 l0 -698 160 0 160 0 0 679 c0 558 3
694 15 764 70 401 352 636 765 637 279 0 481 -112 585 -324 78 -159 77 -149
86 -716 4 -278 7 -625 8 -772 l1 -268 155 0 155 0 0 743 c0 472 -4 775 -11
828 -48 375 -244 633 -563 739 -115 39 -217 53 -371 53 -253 0 -450 -55 -635
-178 -86 -57 -196 -166 -246 -245 -22 -33 -41 -60 -44 -60 -3 0 -20 28 -37 63
-108 207 -335 365 -588 406 -72 12 -233 20 -295 15z"/>
<path d="M30113 12720 c-294 -31 -581 -135 -745 -272 l-47 -39 61 -102 c83
-139 76 -134 129 -94 122 93 259 157 439 205 85 22 115 25 280 26 210 0 264
-9 389 -70 133 -65 223 -181 266 -340 9 -33 19 -121 22 -201 l6 -141 -484 -5
c-587 -5 -655 -13 -839 -108 -202 -104 -318 -288 -328 -520 -15 -336 178 -581
533 -678 168 -46 459 -47 630 -2 189 49 351 151 448 279 l42 56 5 -175 5 -174
148 0 147 0 0 800 c0 790 -3 853 -35 980 -17 67 -83 212 -116 253 -125 162
-299 263 -529 306 -97 19 -322 27 -427 16z m797 -1461 l0 -191 -40 -77 c-149
-287 -430 -422 -814 -391 -169 14 -292 65 -378 158 -137 147 -143 387 -13 539
58 68 202 130 340 146 17 2 227 5 468 6 l437 1 0 -191z"/>
<path d="M32615 12719 c-138 -10 -301 -51 -400 -101 -71 -36 -161 -106 -218
-168 -106 -117 -147 -230 -147 -405 0 -185 61 -319 195 -425 120 -96 252 -143
567 -205 483 -95 573 -124 674 -220 66 -63 90 -132 79 -228 -28 -245 -254
-360 -679 -344 -173 6 -302 30 -446 82 -88 32 -218 96 -276 136 -23 15 -46 29
-53 31 -6 2 -42 -51 -80 -117 l-70 -120 27 -23 c73 -61 287 -163 417 -199 273
-74 548 -90 814 -46 337 54 581 239 646 489 35 135 13 333 -50 440 -55 93
-179 191 -302 238 -96 36 -396 109 -538 131 -111 17 -318 71 -380 100 -161 74
-230 166 -229 305 1 133 73 240 206 307 84 43 159 61 298 71 146 12 306 -1
433 -33 121 -32 180 -54 284 -111 45 -24 84 -41 86 -37 2 5 32 60 66 125 l62
116 -31 22 c-123 87 -410 171 -655 190 -132 11 -155 10 -300 -1z"/>
<path d="M36790 12720 c-203 -19 -376 -79 -541 -190 -85 -57 -228 -202 -282
-287 -146 -225 -201 -420 -201 -703 0 -183 14 -275 65 -424 79 -233 230 -430
429 -560 202 -132 363 -186 620 -206 297 -24 580 42 803 184 59 38 207 172
207 188 0 16 -160 198 -174 198 -6 0 -30 -18 -51 -41 -137 -141 -357 -237
-585 -254 -106 -8 -282 9 -378 35 -254 70 -470 264 -562 501 -32 83 -60 200
-60 250 l0 29 981 0 982 0 -6 153 c-7 213 -38 347 -121 517 -60 123 -110 194
-201 286 -128 130 -250 207 -424 269 -131 47 -336 69 -501 55z m307 -286 c255
-47 485 -242 582 -493 31 -81 66 -244 56 -261 -4 -7 -289 -10 -826 -10 -745 0
-820 1 -826 16 -12 31 35 216 77 304 170 354 522 521 937 444z"/>
<path d="M39755 12724 c-252 -30 -393 -81 -544 -197 -58 -45 -144 -146 -181
-214 -13 -23 -27 -40 -32 -37 -5 3 -8 96 -8 207 0 111 1 208 0 215 0 9 -37 12
-150 12 l-150 0 2 -1172 3 -1173 155 0 155 0 6 700 c5 679 6 702 27 783 67
254 212 431 422 514 100 39 199 58 309 58 l101 0 0 155 0 155 -42 -1 c-24 -1
-56 -4 -73 -5z"/>
<path d="M40985 12720 c-417 -33 -714 -260 -754 -577 -31 -244 50 -432 238
-557 80 -53 137 -79 247 -111 71 -21 151 -37 529 -111 262 -51 401 -118 464
-224 23 -40 26 -55 26 -140 0 -115 -20 -166 -90 -233 -100 -97 -227 -136 -465
-144 -173 -6 -281 5 -435 43 -122 30 -296 104 -393 167 l-72 47 -14 -23 c-7
-12 -39 -67 -71 -122 l-57 -100 34 -28 c51 -44 184 -113 299 -156 363 -136
838 -144 1160 -20 161 62 304 184 368 314 77 155 80 370 9 522 -51 108 -204
230 -346 277 -107 35 -301 82 -460 111 -231 43 -354 75 -439 115 -161 75 -229
173 -221 315 6 92 34 153 100 217 90 88 209 131 405 147 264 21 528 -34 727
-152 38 -23 71 -37 73 -32 2 6 32 62 67 125 43 77 61 119 55 126 -19 24 -201
105 -301 134 -209 62 -460 88 -683 70z"/>
<path d="M24910 5347 c0 -216 -3 -396 -6 -399 -3 -3 -40 29 -82 72 -84 84
-178 138 -280 159 -73 15 -245 13 -316 -4 -206 -49 -387 -210 -456 -407 -74
-211 -44 -480 74 -654 147 -218 449 -331 708 -265 132 34 264 114 318 194 44
64 52 51 48 -78 l-3 -115 88 0 87 0 -2 943 -3 942 -87 3 -88 3 0 -394z m-331
-339 c81 -27 132 -61 193 -126 87 -95 124 -185 134 -332 29 -420 -359 -684
-736 -502 -118 58 -214 192 -246 344 -18 83 -14 214 10 289 48 155 158 275
296 324 105 37 247 39 349 3z"/>
<path d="M32380 5722 c-128 -34 -211 -106 -252 -219 -16 -44 -22 -89 -26 -185
l-4 -127 -117 -3 -116 -3 -3 -77 -3 -78 121 0 120 0 0 -590 0 -590 90 0 90 0
2 588 3 587 203 3 203 2 -3 78 -3 77 -204 3 -203 2 4 123 c2 73 9 132 17 147
69 131 243 157 412 63 10 -6 61 117 55 132 -14 37 -167 85 -266 84 -30 0 -84
-8 -120 -17z"/>
<path d="M42940 4795 l0 -945 90 0 90 0 0 945 0 945 -90 0 -90 0 0 -945z"/>
<path d="M19540 4746 l0 -896 90 0 90 0 0 280 0 280 263 0 c462 1 628 42 788
200 113 110 159 232 159 415 0 68 -6 134 -15 170 -54 208 -205 351 -438 418
-67 19 -104 21 -504 24 l-433 4 0 -895z m840 724 c30 -6 83 -25 118 -40 119
-55 182 -123 222 -241 19 -55 22 -80 18 -184 -4 -107 -8 -127 -33 -180 -36
-76 -118 -159 -190 -191 -114 -52 -216 -65 -517 -62 l-273 3 -3 449 c-2 353 1
452 10 458 18 13 582 2 648 -12z"/>
<path d="M33470 5583 c10 -32 113 -339 228 -683 115 -344 235 -701 266 -795
31 -93 64 -189 72 -212 l16 -43 99 0 c54 0 99 1 99 3 0 2 27 82 61 178 34 96
65 185 69 199 4 14 54 158 110 320 93 269 156 452 243 708 17 50 36 91 41 89
6 -2 23 -41 39 -88 16 -46 57 -167 92 -269 35 -102 114 -331 175 -510 61 -179
133 -389 160 -467 27 -79 51 -147 55 -153 3 -6 48 -10 105 -10 l98 0 118 353
c64 193 199 596 300 895 l182 542 -92 0 -91 0 -169 -503 c-93 -276 -209 -623
-259 -771 -60 -178 -93 -263 -98 -254 -5 8 -22 55 -38 104 -16 49 -108 323
-206 609 -97 286 -190 561 -206 610 -16 50 -39 116 -51 148 l-20 57 -88 0 -88
0 -12 -32 c-20 -55 -171 -490 -185 -533 -13 -41 -180 -527 -255 -740 -23 -66
-49 -141 -57 -167 -9 -27 -19 -48 -23 -48 -10 0 -19 24 -280 812 l-235 708
-96 0 -97 0 18 -57z"/>
<path d="M41360 4745 l0 -895 95 0 95 0 0 375 0 375 463 2 462 3 3 77 3 78
-463 2 -463 3 0 360 0 360 518 3 517 2 0 75 0 75 -615 0 -615 0 0 -895z"/>
<path d="M28800 5340 l0 -150 -120 0 -120 0 0 -80 0 -79 118 -3 117 -3 5 -470
c5 -456 6 -471 27 -517 27 -59 84 -122 137 -153 91 -52 227 -68 339 -39 63 16
151 56 162 73 7 12 -53 134 -63 129 -101 -54 -193 -70 -272 -48 -57 15 -124
80 -139 135 -7 26 -11 185 -11 468 l0 427 205 0 206 0 -3 78 -3 77 -202 3
-202 2 -3 148 -3 147 -87 3 -88 3 0 -151z"/>
<path d="M37847 5484 c-4 -4 -7 -72 -7 -150 l0 -143 -117 -3 -118 -3 -3 -77
-3 -78 121 0 120 0 0 -438 c0 -475 3 -510 56 -600 34 -57 113 -118 182 -139
77 -24 228 -24 303 -1 30 10 74 31 96 47 l41 30 -31 60 c-18 34 -36 59 -42 57
-102 -45 -136 -56 -186 -56 -99 0 -172 38 -212 113 -22 42 -22 45 -22 482 l0
440 203 3 203 2 -3 78 -3 77 -202 3 -202 2 -3 148 -3 147 -80 3 c-45 1 -84 0
-88 -4z"/>
<path d="M21270 4520 l0 -670 89 0 89 0 4 403 c5 429 7 446 60 551 31 60 113
141 172 169 55 26 138 45 216 50 l45 2 3 83 3 82 -58 0 c-169 -1 -329 -84
-412 -215 -16 -25 -31 -42 -35 -38 -3 3 -6 62 -6 130 l0 123 -85 0 -85 0 0
-670z"/>
<path d="M22620 5171 c-229 -62 -394 -222 -465 -451 -22 -73 -31 -261 -16
-342 41 -215 170 -383 366 -478 197 -95 418 -92 624 7 230 110 361 332 361
611 0 330 -194 580 -510 658 -79 19 -279 16 -360 -5z m358 -163 c147 -47 249
-151 303 -308 31 -91 31 -275 0 -371 -53 -165 -170 -277 -333 -320 -326 -86
-615 127 -635 466 -19 339 215 582 537 558 36 -2 93 -14 128 -25z"/>
<path d="M25584 5176 c-3 -8 -4 -216 -1 -463 4 -482 4 -485 61 -608 36 -78
136 -177 218 -214 131 -59 278 -75 420 -46 111 23 192 67 276 150 l72 73 0
-109 0 -109 85 0 85 0 -2 668 -3 667 -85 0 -85 0 -5 -425 c-5 -356 -8 -433
-22 -472 -69 -203 -239 -309 -472 -295 -78 4 -98 9 -165 43 -90 46 -140 105
-173 204 -21 62 -22 88 -27 505 l-6 440 -83 3 c-65 2 -84 0 -88 -12z"/>
<path d="M27674 5171 c-196 -53 -345 -175 -429 -354 -51 -106 -68 -198 -62
-337 9 -223 93 -391 255 -512 241 -179 611 -182 839 -7 48 37 113 112 113 130
0 3 -28 25 -62 47 l-62 41 -61 -58 c-94 -87 -206 -131 -335 -131 -310 1 -529
242 -507 559 21 293 215 482 497 484 155 1 260 -44 360 -154 l45 -50 55 37
c30 20 59 40 64 45 21 19 -93 147 -176 197 -20 13 -69 35 -110 49 -63 23 -92
27 -213 30 -114 2 -153 -1 -211 -16z"/>
<path d="M30828 5171 c-239 -62 -424 -256 -474 -498 -25 -117 -15 -295 20
-393 64 -180 179 -307 349 -385 194 -89 414 -85 613 10 160 77 282 221 336
395 20 64 23 96 23 220 0 131 -3 152 -27 221 -80 228 -245 378 -478 435 -79
19 -279 16 -362 -5z m360 -163 c106 -34 192 -102 253 -198 9 -14 29 -59 44
-100 24 -66 28 -89 28 -195 0 -143 -21 -219 -85 -315 -67 -100 -158 -164 -279
-194 -220 -54 -445 34 -554 218 -55 94 -69 154 -69 291 0 131 13 186 66 281
32 57 126 152 177 178 128 67 279 79 419 34z"/>
<path d="M36560 5171 c-121 -28 -309 -119 -324 -156 -5 -15 62 -125 76 -125 6
0 26 12 45 26 94 71 244 116 393 117 247 1 369 -104 387 -333 4 -58 2 -78 -8
-87 -10 -8 -110 -13 -314 -16 -315 -4 -337 -7 -432 -56 -232 -118 -260 -447
-52 -606 60 -45 119 -71 208 -90 203 -42 412 8 541 131 l60 57 0 -91 0 -92 88
0 87 0 -5 497 c-5 445 -7 503 -23 543 -62 156 -167 246 -331 284 -92 22 -297
20 -396 -3z m574 -727 c3 -9 6 -55 6 -103 0 -75 -4 -95 -27 -142 -15 -29 -49
-76 -75 -102 -123 -123 -355 -160 -529 -85 -125 53 -175 207 -107 331 18 33
36 49 88 74 36 18 79 34 95 36 17 2 145 5 286 5 226 2 258 0 263 -14z"/>
<path d="M39147 5174 c-267 -64 -456 -300 -482 -600 -24 -282 116 -542 358
-663 121 -61 189 -76 342 -76 149 0 219 15 332 70 64 32 183 125 183 144 0 4
-22 32 -49 62 l-48 54 -46 -42 c-152 -140 -417 -173 -622 -77 -65 30 -155 111
-194 174 -33 53 -65 141 -74 202 l-6 38 562 2 562 3 -2 100 c-3 178 -63 318
-191 448 -75 76 -183 137 -287 162 -76 18 -262 18 -338 -1z m339 -165 c159
-51 285 -202 302 -361 l5 -48 -470 0 c-258 0 -472 2 -475 5 -9 9 17 116 39
165 98 216 353 318 599 239z"/>
<path d="M40340 4520 l0 -670 90 0 90 0 0 348 c0 409 7 489 54 587 69 145 182
219 361 233 l80 7 3 83 3 82 -58 0 c-75 0 -170 -23 -240 -57 -63 -31 -163
-126 -183 -172 -7 -17 -16 -28 -21 -25 -5 3 -9 61 -9 130 l0 124 -85 0 -85 0
0 -670z"/>
<path d="M43988 5171 c-225 -58 -401 -230 -466 -456 -74 -255 -1 -534 184
-704 241 -221 617 -240 890 -46 251 179 337 563 194 860 -85 175 -226 290
-422 345 -94 26 -281 27 -380 1z m342 -158 c83 -23 146 -61 206 -126 98 -106
138 -216 137 -382 -1 -160 -51 -286 -154 -386 -173 -168 -487 -172 -673 -8
-102 90 -155 207 -163 364 -7 125 7 199 52 292 107 217 346 315 595 246z"/>
<path d="M44967 5183 c-3 -4 49 -150 115 -323 65 -173 168 -443 227 -600 60
-157 119 -313 131 -347 l23 -63 86 0 87 0 36 93 c21 50 80 202 133 337 223
570 247 630 255 635 5 3 12 -5 16 -17 6 -22 103 -273 249 -643 34 -88 84 -215
110 -282 l48 -123 88 0 87 0 20 58 c12 31 42 111 67 177 52 135 121 316 218
575 37 96 94 247 127 335 34 88 62 167 63 175 2 12 -13 16 -68 18 -38 1 -75
-1 -81 -5 -6 -5 -47 -105 -92 -223 -44 -118 -138 -369 -209 -557 -70 -189
-130 -343 -133 -343 -3 0 -12 19 -21 43 -165 446 -405 1074 -413 1079 -16 11
-144 9 -151 -2 -6 -9 -331 -867 -393 -1037 -15 -40 -32 -73 -38 -73 -5 0 -31
57 -56 128 -26 70 -86 233 -134 362 -47 129 -119 323 -159 430 l-71 195 -81 3
c-45 1 -83 -1 -86 -5z"/>
</g>
</svg>
